<?xml version="1.0" encoding="utf-8"?>
<svg viewBox="10.004 10.686 290 170" xmlns="http://www.w3.org/2000/svg">
  <g fill="#1d428a" fill-rule="nonzero" stroke="none" stroke-width="1" stroke-linecap="butt" stroke-linejoin="miter" stroke-miterlimit="10" stroke-dasharray="" stroke-dashoffset="0" font-family="none" font-weight="none" font-size="none" text-anchor="none" style="mix-blend-mode: normal" transform="matrix(1, 0, 0, 1, -119.991623, -125.661705)">
    <g>
      <g style="">
        <path d="M 183.02 199.767 L 194.395 199.767 L 194.395 186.715 L 171.424 186.715 C 166.786 183.509 172.86 189.348 168.773 186.715 C 174.406 192.326 168.553 189.12 166.012 186.715 C 175.731 196.218 171.203 193.699 163.362 186.715 C 162.258 186.487 157.177 183.166 160.711 186.715 C 161.484 188.319 149.226 177.099 158.061 186.715 C 161.705 190.837 158.834 189.463 155.631 186.715 C 145.029 177.213 149.668 182.365 153.533 186.715 C 150.772 184.311 149.999 184.998 151.214 186.715 C 143.704 180.075 144.477 182.25 149.336 186.715 C 143.041 181.907 147.238 186.83 146.134 186.715 C 145.25 186.83 145.25 188.776 143.262 186.715 C 144.698 188.662 134.317 179.274 143.262 188.319 C 145.581 191.295 136.415 183.475 143.262 190.344 C 142.6 190.803 148.011 195.989 143.262 193.012 C 137.851 188.776 145.029 196.905 143.262 196.218 C 150.772 203.775 144.477 198.393 143.262 198.05 C 148.342 203.546 149.557 205.378 143.262 199.996 C 138.182 195.417 145.25 202.858 143.262 202.057 C 144.477 204.004 139.507 199.424 143.262 204.232 C 143.483 205.148 146.134 208.125 143.262 206.408 C 136.636 200.797 149.889 214.308 143.262 208.583 C 140.391 207.094 140.28 207.553 143.262 210.987 C 141.274 209.843 138.955 208.812 143.262 213.506 C 144.256 215.567 144.035 215.338 143.262 216.024 C 138.734 211.904 140.391 214.995 143.262 218.659 C 143.152 219.345 138.845 216.254 143.262 221.177 C 149.557 227.131 134.869 215.109 143.262 223.925 C 145.361 225.871 140.06 222.093 143.262 226.329 C 143.704 227.818 143.373 228.39 143.262 229.077 C 141.937 228.39 139.066 227.245 143.262 231.71 C 138.293 227.818 148.674 238.923 143.262 234.344 C 135.2 227.474 144.808 237.893 143.262 236.862 C 140.833 235.832 148.453 243.617 143.262 239.495 C 147.238 243.617 147.459 245.22 143.262 242.014 C 147.68 247.281 139.949 240.641 143.262 244.533 C 145.25 247.395 140.28 243.159 143.262 247.052 C 148.342 252.891 144.367 249.456 143.262 249.342 C 145.913 252.662 141.495 248.999 143.262 251.861 C 141.716 250.945 138.072 248.196 143.373 254.036 C 146.023 257.242 145.913 257.357 144.035 256.669 C 139.397 252.891 138.182 253.006 143.262 258.043 C 148.563 263.654 149.668 265.141 143.483 260.447 C 137.851 256.669 140.501 258.158 143.262 261.936 C 148.895 268.119 147.459 268.233 143.262 265.027 C 145.913 268.233 144.256 267.889 143.041 267.431 C 143.152 268.348 143.262 269.034 143.262 269.721 L 143.262 271.324 L 194.395 271.324 L 194.395 258.272 L 162.478 258.272 L 162.478 242.816 C 161.595 240.755 160.711 238.58 162.478 239.037 C 156.736 232.054 160.822 234 162.478 235.488 C 160.38 232.74 165.46 238.236 163.472 235.488 C 160.38 231.825 166.896 236.862 166.454 235.488 L 188.1 235.488 L 188.1 222.436 L 177.608 222.436 C 176.725 222.436 176.614 223.238 175.179 222.436 C 174.516 222.093 174.185 222.666 172.86 222.436 C 168.111 218.659 166.233 217.856 170.651 222.436 C 168.884 221.52 166.565 219.917 168.442 222.436 C 167.117 221.406 161.595 217.17 166.454 222.436 C 167.117 223.925 168 225.642 164.135 222.895 C 164.466 222.55 164.135 221.52 162.478 218.887 C 158.613 214.422 162.699 216.712 162.478 215.223 C 162.037 214.766 161.926 213.277 162.478 213.163 C 165.792 215.567 161.153 210.987 162.478 210.987 C 169.436 217.17 162.699 210.529 162.478 208.926 C 162.147 208.354 161.374 206.179 162.478 206.865 C 157.619 201.256 158.724 200.683 162.478 203.431 C 155.852 194.959 155.41 193.585 162.478 199.767 C 167.227 204.232 151.103 187.975 165.792 199.767 C 179.707 211.789 175.731 206.179 169.326 199.767 C 181.142 210.301 172.639 200.797 171.424 199.767 C 177.167 203.775 181.695 206.522 173.743 199.767 C 167.779 193.012 172.639 197.478 175.952 199.767 C 175.841 199.195 168 190.723 178.381 199.767 C 174.737 195.073 188.321 207.094 180.59 199.767 C 178.934 197.249 180.148 197.478 183.02 199.767 L 183.02 199.767 Z M 162.589 222.55 C 162.92 222.78 163.362 223.009 163.804 223.009 C 164.687 224.268 166.786 226.558 162.589 222.55 Z" id="path-id-77666" style="paint-order: stroke markers;"/>
        <path d="M 275.346 186.83 C 274.573 186.83 272.254 185.456 273.137 186.83 C 273.579 188.089 270.597 185.685 271.37 186.83 C 265.186 182.708 271.701 188.891 268.167 186.83 C 268.83 187.975 271.701 190.723 266.953 186.83 C 260.216 180.189 260.326 181.449 266.511 189.005 C 260.326 184.311 265.406 189.349 265.296 191.409 C 269.051 196.333 270.597 198.737 264.744 194.73 C 261.762 193.127 265.296 197.363 264.192 196.447 C 262.314 195.417 267.615 201.027 263.971 198.737 C 260.878 196.104 263.86 201.027 263.86 201.37 C 267.726 205.606 260.989 200.912 262.314 202.744 C 266.29 207.209 266.732 208.469 262.314 205.835 C 260.768 205.148 261.541 206.98 260.989 207.438 L 260.216 209.613 C 256.24 223.009 251.933 237.206 251.933 237.206 L 236.913 186.83 L 210.74 186.83 L 210.74 218.544 C 210.74 219.345 211.402 221.063 210.74 221.177 C 212.728 224.268 210.519 222.436 210.74 223.925 C 210.408 224.612 213.611 228.161 210.74 226.444 C 206.874 223.352 209.304 227.703 210.74 228.962 C 219.906 239.381 217.366 237.893 210.74 231.481 C 216.372 237.778 204.445 228.504 210.74 234.343 C 214.715 238.122 205.88 232.168 210.74 236.862 C 211.844 238.236 201.021 227.703 210.74 239.381 C 215.599 244.648 218.581 247.968 210.74 241.785 C 205.439 237.206 209.746 242.93 210.74 244.419 C 209.194 242.816 217.587 254.379 210.74 246.823 C 213.169 250.372 192.297 230.336 210.74 249.456 C 208.531 248.197 207.868 249.227 210.74 251.517 C 221.231 261.707 216.041 257.929 210.629 253.692 C 209.083 252.891 202.346 246.708 210.74 256.097 C 212.175 257.929 206.654 252.433 210.74 258.043 C 203.34 251.517 206.433 254.608 210.961 260.104 C 205.328 255.295 196.162 247.968 210.629 261.592 C 217.145 269.492 214.605 268.118 210.74 265.027 C 207.979 262.737 211.844 267.317 210.298 267.088 C 198.702 256.784 209.525 268.233 210.74 269.607 C 211.071 269.95 211.623 270.408 211.844 270.866 C 212.396 270.98 214.826 272.354 214.274 271.667 C 206.322 264.454 223.33 278.995 215.82 271.209 C 211.181 266.401 220.458 274.301 217.035 270.408 C 225.097 276.247 232.496 283.002 219.575 270.523 C 229.072 279.453 216.703 266.286 222.667 271.209 C 237.687 284.49 229.735 276.247 224.986 271.209 C 213.722 260.676 227.858 272.24 228.299 272.583 C 235.92 280.254 237.024 279.796 228.631 271.438 C 241.552 282.315 220.9 262.966 229.845 271.209 C 233.711 274.186 226.201 267.66 229.845 269.378 C 238.128 275.904 224.434 262.737 229.845 267.088 C 228.52 265.027 240.227 275.102 229.845 263.997 C 232.165 264.912 228.41 259.76 229.845 260.218 C 229.845 259.302 231.281 259.646 229.845 258.158 C 224.876 251.975 228.52 255.524 229.845 256.097 C 224.986 250.945 232.606 257.585 229.845 253.921 C 231.944 255.066 231.723 254.15 229.845 251.632 L 229.845 213.048 L 244.865 271.209 L 258.78 271.209 L 272.916 217.399 C 273.137 216.368 269.824 211.789 273.468 214.995 C 273.579 214.88 273.579 214.651 273.468 214.422 C 273.579 214.537 274.021 214.766 274.131 214.995 C 275.788 217.399 274.131 216.368 274.131 217.399 L 274.131 271.209 L 293.016 271.209 L 293.016 186.83 Z M 273.247 213.392 C 272.254 211.674 270.597 209.499 274.131 213.048 C 276.782 215.796 273.8 213.392 273.247 213.392 Z M 211.734 270.98 C 209.856 269.378 202.236 263.997 210.74 271.209 C 213.832 274.072 219.243 279.224 211.844 270.866 C 211.734 270.751 211.623 270.866 211.734 270.98 Z" id="path-id-21297" style="paint-order: stroke markers;"/>
        <path d="M 331.227 156.366 C 333.436 158.32 339.068 164.019 332.553 155.226 C 335.866 160.437 333.215 157.669 326.478 151.155 C 312.122 133.244 309.14 129.661 324.159 151.155 C 325.816 153.923 323.276 153.598 321.84 151.318 C 326.699 159.134 324.38 157.179 322.061 154.574 C 328.577 162.879 316.208 146.921 317.312 151.155 C 327.583 164.833 317.754 155.715 315.324 151.806 C 313.889 149.852 312.122 147.899 312.895 150.504 L 307.041 143.177 C 302.182 136.012 315.656 156.366 312.232 151.155 C 301.961 136.989 301.851 139.594 312.232 153.76 C 307.041 147.899 314.772 158.645 315.324 159.459 C 315.987 160.274 315.766 160.437 313.336 157.831 C 323.386 171.834 329.239 182.907 312.232 160.111 C 305.827 152.294 316.208 167.927 311.79 164.181 C 310.907 164.019 318.196 174.603 311.569 166.298 C 304.391 157.506 315.103 172.486 312.232 170.044 C 318.637 179.651 305.716 162.879 312.674 173.951 C 312.011 174.929 313.999 176.719 312.453 176.394 C 312.453 177.371 312.453 178.185 312.232 179.162 L 312.232 271.324 L 331.227 271.324 L 331.227 203.912 C 331.227 202.447 330.896 200.655 330.675 199.191 C 322.944 187.792 322.503 186.326 331.227 196.422 C 326.589 189.583 327.914 189.257 329.681 190.56 C 326.699 184.699 329.239 186.489 330.233 187.792 C 321.73 174.277 333.767 191.048 331.006 185.35 C 331.89 186.163 327.141 179.324 331.227 182.419 C 331.117 179.162 330.454 178.999 332.221 180.139 C 334.43 181.93 337.412 184.209 332 176.882 C 325.926 168.415 326.037 165.647 331.779 173.463 C 336.749 180.139 337.854 181.767 331.227 170.044 C 344.701 187.629 334.099 171.997 331.227 167.276 C 330.454 163.367 328.245 162.554 331.227 164.67 C 335.534 168.578 330.233 159.785 331.227 160.111 C 343.707 175.254 335.976 164.507 331.227 156.366 Z M 331.227 151.155 C 329.792 149.038 333.326 155.226 329.792 151.155 C 330.675 152.457 331.338 153.598 332 154.411 C 331.89 154.249 331.779 154.249 331.559 154.086 C 331.89 154.411 332.111 154.737 332.332 154.9 L 332 154.411 C 335.976 158.645 334.651 156.203 331.227 151.155 Z M 314.993 150.83 C 315.103 150.992 315.214 151.318 315.324 151.806 C 317.202 153.923 318.637 156.04 314.993 150.83 Z M 321.067 153.272 C 320.294 152.294 319.742 151.318 319.41 151.155 Z M 322.061 154.574 L 321.067 153.272 Z M 331.559 154.086 C 331.448 153.923 331.338 153.923 331.227 153.76 Z M 332.553 155.226 C 332.442 155.226 332.442 155.064 332.332 154.9 C 332.442 155.064 332.442 155.226 332.553 155.226 Z M 330.233 187.792 L 330.675 188.443 C 330.675 188.28 330.454 188.118 330.233 187.792 Z" id="path-id-54351" fill="#ffd301" style="paint-order: stroke markers;"/>
        <path d="M 410.411 248.311 C 410.411 234.687 398.926 228.39 389.428 224.497 L 386.446 223.238 C 386.888 224.612 376.728 215.338 383.685 222.436 C 381.366 220.376 381.697 221.978 381.256 221.521 C 382.802 223.81 371.758 212.934 378.274 220.147 C 374.629 217.055 382.581 225.07 375.734 218.773 C 375.844 219.231 376.396 219.918 376.617 220.032 C 376.396 219.918 375.623 219.116 373.746 217.284 C 366.788 211.102 370.764 214.308 372.2 215.682 C 376.617 219.345 367.34 211.102 370.985 213.85 C 363.475 205.835 376.838 219.574 370.212 212.018 C 372.752 213.621 371.095 211.903 369.77 209.842 C 368.445 208.354 365.021 204.118 369.549 207.782 C 370.985 208.24 375.292 210.873 369.991 204.919 C 369.439 204.347 369.439 202.973 370.764 202.63 C 370.764 200.912 380.262 209.499 372.31 200.798 C 372.973 200.454 370.764 196.905 374.298 199.424 C 367.451 192.783 384.237 206.637 376.838 198.622 C 377.942 198.393 377.059 196.676 379.599 198.393 C 379.82 198.279 380.262 197.592 381.918 198.622 C 379.489 195.875 379.93 196.104 383.906 199.08 C 382.029 197.134 384.237 198.851 385.673 200.111 C 385.121 199.767 388.103 202.744 388.544 203.431 C 386.115 201.714 386.888 202.744 389.538 205.835 C 385.01 202.286 394.729 212.018 390.201 209.041 C 392.078 211.102 392.852 212.132 392.962 212.476 C 393.404 212.934 394.398 213.506 395.613 214.422 C 394.839 213.392 398.926 216.254 397.6 214.193 C 397.821 213.85 395.613 210.873 400.03 213.85 C 400.803 213.735 401.576 213.735 402.349 213.621 L 409.307 212.819 L 409.307 210.529 C 408.865 192.898 396.054 185.113 379.047 185.113 L 377.059 185.113 C 376.286 184.884 375.292 184.082 375.071 185.227 C 376.396 187.86 372.089 185.342 371.095 185.685 C 367.782 183.739 368.776 186.143 367.561 186.601 C 364.469 185.342 368.666 190.379 364.027 187.86 C 367.893 192.898 370.985 197.821 361.045 189.349 C 365.353 194.73 358.285 190.265 358.285 191.295 C 351.548 186.601 357.401 193.585 355.855 193.356 C 351.769 190.265 353.425 194.157 353.867 195.875 C 351.769 195.073 364.8 209.156 351.99 198.737 C 361.156 208.125 363.586 212.361 350.885 201.828 C 351.769 204.347 358.285 211.102 349.339 204.232 C 336.639 193.585 350.443 206.866 348.345 205.377 C 346.799 205.034 352.542 211.102 350.112 208.927 C 342.602 202.286 345.363 206.064 350.775 211.216 C 339.952 201.599 350.443 212.476 350.775 212.819 C 344.922 208.583 346.799 211.102 350.885 215.682 L 351.769 216.483 C 351.658 216.483 351.658 216.712 352.21 217.857 C 356.407 221.864 353.867 219.231 353.315 219.803 C 356.518 223.123 353.536 221.177 353.315 221.177 C 354.088 221.978 354.419 222.78 354.971 223.581 C 359.499 228.962 366.346 232.397 375.071 235.259 C 385.01 238.58 390.532 241.213 390.864 248.197 C 391.195 253.463 389.428 256.784 386.336 258.615 C 385.342 259.073 384.569 259.302 383.354 259.417 C 380.703 257.929 380.593 259.073 380.041 259.76 C 379.489 260.218 377.722 259.302 377.501 259.531 C 374.961 257.585 376.065 259.646 375.623 259.188 C 377.832 261.707 371.427 255.753 373.415 257.814 L 372.2 256.784 C 372.752 257.242 369.549 254.036 370.322 254.265 C 371.758 255.524 367.34 251.059 369.107 251.632 C 367.34 249.571 368.997 250.029 368.445 248.54 L 368.224 246.708 L 368.224 242.701 L 348.897 244.877 L 348.897 248.998 C 347.13 248.197 349.67 251.174 349.229 251.059 C 346.468 248.998 345.363 249.8 349.891 254.608 C 343.817 250.029 344.038 251.059 350.885 257.814 C 351.879 260.104 356.849 265.027 352.21 260.676 C 345.474 255.066 347.13 256.784 350.664 260.218 C 351.437 260.562 352.984 262.05 355.855 264.569 L 355.634 264.111 L 356.186 264.912 C 357.401 266.057 358.837 267.431 360.714 268.92 C 359.61 267.431 369.218 276.133 362.592 269.492 C 343.817 252.547 357.511 264.798 363.917 269.95 C 379.599 284.49 377.942 282.887 366.236 271.324 C 353.315 260.333 365.684 270.065 369.439 272.24 C 366.788 267.088 375.071 275.904 372.752 272.698 C 376.838 276.705 371.979 270.98 376.175 272.927 C 371.647 267.889 372.2 267.317 379.82 273.041 C 378.163 270.866 380.593 271.324 383.243 272.927 C 383.243 271.896 386.998 274.072 386.557 272.583 C 387.44 272.354 390.643 273.843 389.87 272.125 C 390.311 270.98 391.526 270.98 393.072 271.209 C 394.839 271.782 397.048 272.354 395.944 270.065 C 397.048 269.721 397.821 269.149 398.705 268.805 C 405.883 264.798 410.522 258.043 410.411 248.311 Z M 390.532 210.873 C 386.667 208.011 393.404 214.995 390.643 212.819 C 395.502 217.284 388.986 212.59 389.649 213.964 C 390.864 214.88 393.625 216.941 391.858 214.88 C 394.508 216.483 390.643 211.903 391.747 212.018 C 391.305 211.789 390.864 211.216 390.532 210.873 Z M 392.962 212.476 C 392.299 212.132 391.858 212.018 391.747 212.018 C 392.52 212.476 393.072 212.819 392.962 212.476 Z M 389.98 214.422 L 389.649 213.964 C 389.428 213.735 389.207 213.735 389.98 214.422 Z M 390.643 214.995 C 390.422 214.766 390.201 214.537 389.98 214.422 Z M 375.623 259.188 C 375.513 259.073 375.513 259.073 375.402 258.959 Z M 350.664 260.218 C 349.891 259.76 350.333 260.218 351.548 261.478 C 350.112 259.989 349.229 259.302 348.897 259.073 C 348.456 258.959 348.456 258.959 348.897 259.188 C 349.56 260.218 354.419 264.912 355.855 265.485 L 355.965 265.485 L 353.425 263.081 C 352.652 261.936 351.658 261.02 350.664 260.218 Z M 348.787 259.073 L 348.897 259.073 Z M 351.658 261.478 L 352.542 262.279 C 352.21 262.05 351.879 261.707 351.658 261.478 Z M 355.965 265.485 C 356.738 266.057 357.401 266.515 358.174 267.317 L 356.186 264.912 L 355.855 264.569 C 356.076 264.912 356.186 265.37 355.965 265.485 Z" id="path-id-84353" style="paint-order: stroke markers;"/>
      </g>
      <path d="M143.02086,286.81033v-0.95892h-3.43396v9.07084h3.43396v-0.95892h-2.39729v-3.44692h2.00854v-0.95892h-2.00854v-2.74717zM149.47736,285.85141v6.71242l-2.22884,-6.71242h-1.03667v9.07084h1.03667v-6.09042l2.0215,6.09042h1.244v-9.07084zM157.68323,285.85141h-4.30217v0.95892h1.63275v8.11192h1.03667v-8.11192h1.63275zM163.98423,286.81033v-0.95892h-3.43396v9.07084h3.43396v-0.95892h-2.39729v-3.44692h2.00854v-0.95892h-2.00854v-2.74717zM168.21189,291.17729h0.933c0.73863,0 0.92004,0.18142 0.92004,0.92004v0.29804c0,1.50317 0.03888,2.22884 0.22029,2.52688h1.03667c-0.18142,-0.28508 -0.22029,-0.89413 -0.22029,-2.52688v-0.42763c0,-0.63496 -0.10367,-1.04963 -0.45354,-1.37358c0.24621,-0.28508 0.45354,-0.47946 0.45354,-1.0885v-1.69754c0,-1.3995 -0.54425,-1.95671 -1.95671,-1.95671h-1.96967v9.07084h1.03667zM168.21189,286.81033h0.933c0.73863,0 0.92004,0.18142 0.92004,0.92004v1.58092c0,0.72567 -0.18142,0.90708 -0.92004,0.90708h-0.933zM174.29259,285.85141v9.07084h1.03667v-3.61538h0.933c1.41246,0 1.95671,-0.55721 1.95671,-1.95671v-1.54204c0,-1.3995 -0.54425,-1.95671 -1.95671,-1.95671zM177.1823,287.73037v1.69754c0,0.73863 -0.18142,0.92004 -0.92004,0.92004h-0.933v-3.53763h0.933c0.73863,0 0.92004,0.18142 0.92004,0.92004zM182.31705,291.17729h0.933c0.73863,0 0.92004,0.18142 0.92004,0.92004v0.29804c0,1.50317 0.03888,2.22884 0.22029,2.52688h1.03667c-0.18142,-0.28508 -0.22029,-0.89413 -0.22029,-2.52688v-0.42763c0,-0.63496 -0.10367,-1.04963 -0.45354,-1.37358c0.24621,-0.28508 0.45354,-0.47946 0.45354,-1.0885v-1.69754c0,-1.3995 -0.54425,-1.95671 -1.95671,-1.95671h-1.96967v9.07084h1.03667zM182.31705,286.81033h0.933c0.73863,0 0.92004,0.18142 0.92004,0.92004v1.58092c0,0.72567 -0.18142,0.90708 -0.92004,0.90708h-0.933zM189.43442,285.85141h-1.03667v9.07084h1.03667zM196.05938,286.26607c-0.33692,-0.29804 -0.7775,-0.49242 -1.41246,-0.49242c-0.49242,0 -2.15109,0.16846 -2.15109,2.28067c0,0.29804 0,1.19217 0.94596,1.93079c1.46429,1.15329 2.31954,1.555 2.31954,2.52688c0,0.97188 -0.41467,1.52908 -1.11442,1.52908c-0.40171,0 -1.11442,-0.28508 -1.11442,-1.3995h-1.03667c0.02592,1.866 1.19217,2.35842 2.15109,2.35842c0.50538,0 2.15109,-0.18142 2.15109,-2.488c0,-1.47725 -1.17921,-2.09925 -2.70829,-3.34325c-0.55721,-0.44058 -0.55721,-0.88117 -0.55721,-1.11442c0,-1.20513 0.71271,-1.32175 1.11442,-1.32175c0.40171,0 1.11442,0.28508 1.11442,1.3995h1.03667c-0.01296,-1.01075 -0.40171,-1.58092 -0.73863,-1.866zM203.29337,286.81033v-0.95892h-3.43396v9.07084h3.43396v-0.95892h-2.39729v-3.44692h2.00854v-0.95892h-2.00854v-2.74717zM215.86945,285.85141l-1.866,8.18967l-1.866,-8.18967h-1.03667v9.07084h1.03667v-5.05375l1.19217,5.05375h1.33471l1.20513,-5.05375v5.05375h1.03667v-9.07084zM222.67582,285.85141h-1.06258l-1.64571,9.07084h1.04963l0.28508,-1.68458h1.68458l0.28508,1.68458h1.04963zM222.14453,288.44308l0.67383,3.83567h-1.34767zM230.64844,285.85141v6.71242l-2.22884,-6.71242h-1.03667v9.07084h1.03667v-6.09042l2.0215,6.09042h1.244v-9.07084zM237.45481,285.85141h-1.06258l-1.64571,9.07084h1.04963l0.28508,-1.68458h1.68458l0.28508,1.68458h1.04963zM236.92352,288.44308l0.67383,3.83567h-1.34767zM244.64993,290.335v0.95892h0.64792v1.34767c0,0.58313 -0.12958,0.95892 -0.38875,1.17921c-0.24621,0.20733 -0.53129,0.22029 -0.72567,0.22029c-0.19438,0 -0.47946,-0.01296 -0.72567,-0.22029c-0.25917,-0.22029 -0.38875,-0.59608 -0.38875,-1.17921v-4.5095c0,-0.58313 0.12958,-0.95892 0.38875,-1.17921c0.24621,-0.20733 0.53129,-0.22029 0.72567,-0.22029c0.19438,0 0.47946,0.01296 0.72567,0.22029c0.25917,0.22029 0.38875,0.59608 0.38875,1.17921h1.03667c0,-1.02371 -0.40171,-1.59388 -0.75158,-1.87896c-0.32396,-0.28508 -0.76454,-0.47946 -1.3995,-0.47946c-0.63496,0 -1.07554,0.19438 -1.41246,0.47946c-0.33692,0.28508 -0.73863,0.85525 -0.73863,1.87896v4.5095c0,1.02371 0.40171,1.59388 0.73863,1.87896c0.33692,0.28508 0.7775,0.47946 1.41246,0.47946c0.63496,0 1.07554,-0.19438 1.3995,-0.47946c0.34988,-0.28508 0.75158,-0.85525 0.75158,-1.87896v-2.30659zM252.95947,286.81033v-0.95892h-3.43396v9.07084h3.43396v-0.95892h-2.39729v-3.44692h2.00854v-0.95892h-2.00854v-2.74717zM260.91914,285.85141l-1.866,8.18967l-1.866,-8.18967h-1.03667v9.07084h1.03667v-5.05375l1.19217,5.05375h1.33471l1.20513,-5.05375v5.05375h1.03667v-9.07084zM268.71034,286.81033v-0.95892h-3.43396v9.07084h3.43396v-0.95892h-2.39729v-3.44692h2.00854v-0.95892h-2.00854v-2.74717zM275.16684,285.85141v6.71242l-2.22884,-6.71242h-1.03667v9.07084h1.03667v-6.09042l2.0215,6.09042h1.244v-9.07084zM283.37271,285.85141h-4.30217v0.95892h1.63275v8.11192h1.03667v-8.11192h1.63275zM291.89282,285.85141h-1.03667v9.07084h1.03667zM298.4789,285.85141v6.71242l-2.22884,-6.71242h-1.03667v9.07084h1.03667v-6.09042l2.0215,6.09042h1.244v-9.07084zM306.27011,285.85141h-3.43396v9.07084h1.03667v-4.40584h2.00854v-0.95892h-2.00854v-2.74717h2.39729zM313.50411,288.13208c0,-1.34767 -0.76454,-2.35842 -2.15109,-2.35842c-1.47725,0 -2.15109,1.10146 -2.15109,2.35842v4.5095c0,1.25696 0.67383,2.35842 2.15109,2.35842c1.38654,0 2.15109,-1.01075 2.15109,-2.35842zM310.2386,288.13208c0,-0.7775 0.23325,-1.3995 1.11442,-1.3995c0.933,0 1.11442,0.69975 1.11442,1.3995v4.5095c0,0.69975 -0.18142,1.3995 -1.11442,1.3995c-0.88117,0 -1.11442,-0.622 -1.11442,-1.3995zM317.73177,291.17729h0.933c0.73863,0 0.92004,0.18142 0.92004,0.92004v0.29804c0,1.50317 0.03888,2.22884 0.22029,2.52688h1.03667c-0.18142,-0.28508 -0.22029,-0.89413 -0.22029,-2.52688v-0.42763c0,-0.63496 -0.10367,-1.04963 -0.45354,-1.37358c0.24621,-0.28508 0.45354,-0.47946 0.45354,-1.0885v-1.69754c0,-1.3995 -0.54425,-1.95671 -1.95671,-1.95671h-1.96967v9.07084h1.03667zM317.73177,286.81033h0.933c0.73863,0 0.92004,0.18142 0.92004,0.92004v1.58092c0,0.72567 -0.18142,0.90708 -0.92004,0.90708h-0.933zM328.58114,285.85141l-1.866,8.18967l-1.866,-8.18967h-1.03667v9.07084h1.03667v-5.05375l1.19217,5.05375h1.33471l1.20513,-5.05375v5.05375h1.03667v-9.07084zM335.38751,285.85141h-1.06258l-1.64571,9.07084h1.04963l0.28508,-1.68458h1.68458l0.28508,1.68458h1.04963zM334.85622,288.44308l0.67383,3.83567h-1.34767zM343.48972,285.85141h-4.30217v0.95892h1.63275v8.11192h1.03667v-8.11192h1.63275zM347.39342,285.85141h-1.03667v9.07084h1.03667zM354.88658,288.13208c0,-1.34767 -0.76454,-2.35842 -2.15109,-2.35842c-1.47725,0 -2.15109,1.10146 -2.15109,2.35842v4.5095c0,1.25696 0.67383,2.35842 2.15109,2.35842c1.38654,0 2.15109,-1.01075 2.15109,-2.35842zM351.62108,288.13208c0,-0.7775 0.23325,-1.3995 1.11442,-1.3995c0.933,0 1.11442,0.69975 1.11442,1.3995v4.5095c0,0.69975 -0.18142,1.3995 -1.11442,1.3995c-0.88117,0 -1.11442,-0.622 -1.11442,-1.3995zM361.34308,285.85141v6.71242l-2.22884,-6.71242h-1.03667v9.07084h1.03667v-6.09042l2.0215,6.09042h1.244v-9.07084zM373.62111,286.26607c-0.33692,-0.29804 -0.7775,-0.49242 -1.41246,-0.49242c-0.49242,0 -2.15109,0.16846 -2.15109,2.28067c0,0.29804 0,1.19217 0.94596,1.93079c1.46429,1.15329 2.31954,1.555 2.31954,2.52688c0,0.97188 -0.41467,1.52908 -1.11442,1.52908c-0.40171,0 -1.11442,-0.28508 -1.11442,-1.3995h-1.03667c0.02592,1.866 1.19217,2.35842 2.15109,2.35842c0.50538,0 2.15109,-0.18142 2.15109,-2.488c0,-1.47725 -1.17921,-2.09925 -2.70829,-3.34325c-0.55721,-0.44058 -0.55721,-0.88117 -0.55721,-1.11442c0,-1.20513 0.71271,-1.32175 1.11442,-1.32175c0.40171,0 1.11442,0.28508 1.11442,1.3995h1.03667c-0.01296,-1.01075 -0.40171,-1.58092 -0.73863,-1.866zM381.2309,285.85141h-1.07554l-1.02371,3.53763l-1.02371,-3.53763h-1.07554l1.58092,5.36476v3.70609h1.03667v-3.70609zM387.46711,286.26607c-0.33692,-0.29804 -0.7775,-0.49242 -1.41246,-0.49242c-0.49242,0 -2.15109,0.16846 -2.15109,2.28067c0,0.29804 0,1.19217 0.94596,1.93079c1.46429,1.15329 2.31954,1.555 2.31954,2.52688c0,0.97188 -0.41467,1.52908 -1.11442,1.52908c-0.40171,0 -1.11442,-0.28508 -1.11442,-1.3995h-1.03667c0.02592,1.866 1.19217,2.35842 2.15109,2.35842c0.50538,0 2.15109,-0.18142 2.15109,-2.488c0,-1.47725 -1.17921,-2.09925 -2.70829,-3.34325c-0.55721,-0.44058 -0.55721,-0.88117 -0.55721,-1.11442c0,-1.20513 0.71271,-1.32175 1.11442,-1.32175c0.40171,0 1.11442,0.28508 1.11442,1.3995h1.03667c-0.01296,-1.01075 -0.40171,-1.58092 -0.73863,-1.866zM395.11577,285.85141h-4.30217v0.95892h1.63275v8.11192h1.03667v-8.11192h1.63275zM401.41677,286.81033v-0.95892h-3.43396v9.07084h3.43396v-0.95892h-2.39729v-3.44692h2.00854v-0.95892h-2.00854v-2.74717zM409.37643,285.85141l-1.866,8.18967l-1.866,-8.18967h-1.03667v9.07084h1.03667v-5.05375l1.19217,5.05375h1.33471l1.20513,-5.05375v5.05375h1.03667v-9.07084z" id="path-id-78861" fill="#ffd301" style=""/>
    </g>
  </g>
</svg>